# xmcd CD database file
#
# Track frame offsets:
#	150
#	23165
#	46982
#	76240
#	92655
#	109217
#	122587
#	142832
#	162920
#	184015
#	199497
#	223040
#	240105
#	259585
#	284287
#	314360
#
# Disc length: 4440 seconds
#
# Revision: 0
# Processed by: cddbd v1.5.1PL0 Copyright (c) Steve Scherf et al.
# Submitted via: CDex 1.51
#
DISCID=d5115610
DTITLE=varius - / 31ヒッツ-ザ・ジャパン・ゴールドディスク・アワード2003 Disc 1
DYEAR=2003
DGENRE=
TTITLE0=Voyage
TTITLE1=Ring
TTITLE2=果てなく続くストーリー
TTITLE3=きよしのズンドコ節
TTITLE4=Happy Valley
TTITLE5=デリケートにキスして
TTITLE6=ひかる・かいがら
TTITLE7=futurity
TTITLE8=もらい泣き
TTITLE9=Kiss Kiss
TTITLE10=風のくちづけ（風之吻）
TTITLE11=百花繚乱
TTITLE12=SAMURAI DRIVE
TTITLE13=WILL
TTITLE14=交響曲第９番（合唱）（抜粋）
TTITLE15=test
EXTD=YEAR: 2003
EXTT0=
EXTT1=
EXTT2=
EXTT3=
EXTT4=
EXTT5=
EXTT6=
EXTT7=
EXTT8=
EXTT9=
EXTT10=
EXTT11=
EXTT12=
EXTT13=
EXTT14=
EXTT15=
PLAYORDER=
